<?xml version="1.0" encoding="utf-8"?>
<!-- Generator: Adobe Illustrator 26.0.3, SVG Export Plug-In . SVG Version: 6.00 Build 0)  -->
<svg version="1.0" id="katman_1" xmlns="http://www.w3.org/2000/svg" xmlns:xlink="http://www.w3.org/1999/xlink" x="0px" y="0px"
	 viewBox="0 0 42.8 32.7" style="enable-background:new 0 0 42.8 32.7;" xml:space="preserve">
<style type="text/css">
	.st0{opacity:0.24;fill-rule:evenodd;clip-rule:evenodd;fill:#938CAA;enable-background:new    ;}
	.st1{fill:none;stroke:#938CAA;stroke-linecap:round;stroke-linejoin:round;}
</style>
<g id="Page-1">
	<g id="Shaded" transform="translate(-400.000000, -50.000000)">
		<g id="paper-airplane" transform="translate(400.000000, 50.000000)">
			<path id="Fill-1" class="st0" d="M33.7,4c-0.1-0.1-0.4-0.2-0.5-0.1l-2,0.8C31.1,4.8,31,4.9,30.9,5l-7.5,18l-2.3-6.3
				c-0.1-0.1-0.2-0.2-0.3-0.3L12,12.9c-0.1,0-0.3,0-0.4,0l-2.5,1C9,14,8.9,14.2,8.9,14.4c0,0.2,0.1,0.4,0.3,0.5l9.8,3.9l3.9,9.8
				c0.1,0.2,0.3,0.3,0.5,0.3h0c0.2,0,0.4-0.1,0.5-0.3l10-24C33.9,4.4,33.9,4.1,33.7,4"/>
			<polygon id="Stroke-1" class="st1" points="23.4,28.4 19.4,18.4 9.4,14.4 33.4,4.4 			"/>
			<path id="Stroke-3" class="st1" d="M33.4,4.4l-14,14"/>
		</g>
	</g>
</g>
</svg>
